<svg width="235" height="50" viewBox="0 0 235 50" fill="none" xmlns="http://www.w3.org/2000/svg">
<path d="M47.2802 22.3369C45.2412 18.6359 42.0826 15.6857 39.028 12.8327C38.4909 12.331 37.9834 11.857 37.4787 11.376C35.586 9.57207 33.6698 7.83291 31.8166 6.15098C29.9764 4.48086 28.0737 2.754 26.2072 0.974902L25.1846 0L24.162 0.974805C22.2953 2.754 20.3926 4.48086 18.5527 6.15088C16.6995 7.83281 14.7833 9.57197 12.8906 11.3759C12.386 11.8568 11.8786 12.3308 11.3413 12.8325C8.28673 15.6855 5.12814 18.6358 3.08907 22.3369C0.446957 27.1328 0.520249 32.459 3.29026 36.9502C6.72618 42.5209 11.5162 43.7204 14.9296 43.7456C16.7047 43.7579 18.4785 43.4522 20.1692 42.8479C19.7978 44.3703 19.3219 45.1986 18.9207 45.4789L18.2939 45.9168V50H32.0752V45.9168L31.4484 45.4789C31.0472 45.1986 30.5714 44.3704 30.1999 42.848C31.8906 43.4523 33.6659 43.7596 35.4394 43.7457C38.8528 43.7204 43.6429 42.5209 47.0787 36.9503C49.8489 32.459 49.9222 27.1328 47.2802 22.3369Z" fill="black"/>
<path d="M73.1168 18.876C72.8528 18.42 71.8688 18.192 70.1648 18.192C67.9328 18.192 66.2408 18.948 65.0888 20.46C63.9368 21.972 63.3608 24.156 63.3608 27.012C63.3608 32.94 65.5808 35.904 70.0208 35.904C70.0928 35.904 70.4048 35.904 70.9568 35.904C71.5328 35.904 72.0728 35.832 72.5768 35.688C73.0808 35.52 73.3808 35.352 73.4768 35.184C73.5728 35.016 73.6208 34.752 73.6208 34.392V31.512L77.2928 31.764V37.992C75.4208 38.976 73.0448 39.468 70.1648 39.468C66.4928 39.468 63.6848 38.436 61.7408 36.372C59.8208 34.308 58.8608 31.236 58.8608 27.156C58.8608 24.9 59.1848 22.932 59.8328 21.252C60.4808 19.572 61.3568 18.264 62.4608 17.328C64.6208 15.528 67.1888 14.628 70.1648 14.628C72.5648 14.628 74.8208 15.12 76.9328 16.104V22.224L73.2608 22.476V19.668C73.2608 19.308 73.2128 19.044 73.1168 18.876ZM81.525 34.968L87.321 18.192L85.053 17.976V15.06H93.297L100.641 35.832H100.677L102.729 35.94V39H93.441V36.084L94.809 35.976C95.217 35.928 95.493 35.832 95.637 35.688C95.781 35.544 95.793 35.28 95.673 34.896L94.917 32.664H86.493L85.413 35.832L87.573 35.94V39H79.257V36.084L80.445 35.976C80.949 35.928 81.309 35.592 81.525 34.968ZM90.705 19.092L87.357 29.352H94.053L90.813 19.092H90.705ZM104.065 39V36.084L105.253 35.976C105.949 35.904 106.297 35.568 106.297 34.968V18.228L104.245 18.12V15.06H114.073C116.857 15.06 118.993 15.576 120.481 16.608C121.969 17.64 122.713 19.332 122.713 21.684C122.713 23.316 122.281 24.66 121.417 25.716C120.577 26.772 119.569 27.54 118.393 28.02C119.257 28.332 119.941 29.064 120.445 30.216L123.037 35.868L125.089 35.94V39H116.197V36.084L117.241 35.976C117.793 35.904 118.069 35.688 118.069 35.328C118.069 35.184 118.021 35.016 117.925 34.824L116.233 31.224C115.969 30.624 115.669 30.204 115.333 29.964C115.021 29.7 114.565 29.568 113.965 29.568H110.689V35.832L113.029 35.94V39H104.065ZM110.689 26.148H113.821C116.773 26.148 118.249 24.828 118.249 22.188C118.249 20.676 117.853 19.692 117.061 19.236C116.293 18.78 115.045 18.552 113.317 18.552H110.689V26.148ZM126.672 39V36.084L127.86 35.976C128.556 35.904 128.904 35.568 128.904 34.968V18.228L126.852 18.12V15.06H136.716C140.244 15.06 142.992 15.996 144.96 17.868C146.952 19.74 147.948 22.512 147.948 26.184C147.948 28.464 147.648 30.456 147.048 32.16C146.448 33.84 145.632 35.16 144.6 36.12C142.536 38.04 139.968 39 136.896 39H126.672ZM133.296 18.552V35.544H136.968C139.032 35.544 140.64 34.8 141.792 33.312C142.944 31.824 143.52 29.664 143.52 26.832C143.52 21.312 141.18 18.552 136.5 18.552H133.296ZM166.562 17.976L155.582 35.58H162.566C163.166 35.58 163.466 35.196 163.466 34.428V31.908L167.138 32.16V39H150.578V36.012L161.45 18.48H155.474C154.826 18.48 154.502 18.852 154.502 19.596V21.036L150.83 20.784V15.06H166.562V17.976ZM178.377 15.348C183.825 15.348 186.549 19.296 186.549 27.192C186.549 31.392 185.841 34.476 184.425 36.444C183.009 38.388 180.909 39.36 178.125 39.36C175.341 39.36 173.265 38.4 171.897 36.48C170.529 34.536 169.845 31.524 169.845 27.444C169.845 23.364 170.601 20.328 172.113 18.336C173.625 16.344 175.713 15.348 178.377 15.348ZM175.209 34.068C175.905 35.292 176.901 35.904 178.197 35.904C179.493 35.904 180.489 35.268 181.185 33.996C181.905 32.724 182.265 30.516 182.265 27.372C182.265 24.204 181.917 21.996 181.221 20.748C180.549 19.5 179.553 18.876 178.233 18.876C176.913 18.876 175.905 19.548 175.209 20.892C174.537 22.212 174.201 24.432 174.201 27.552C174.201 30.648 174.537 32.82 175.209 34.068ZM189.002 39V36.084L190.298 35.976C190.922 35.928 191.234 35.592 191.234 34.968V18.228L189.182 18.12V15.06H195.662L205.85 31.584H205.922V18.228L203.546 18.12V15.06H212.33V17.976L211.034 18.084C210.458 18.132 210.17 18.504 210.17 19.2V39H205.958L195.554 22.224H195.482V35.832L197.822 35.94V39H189.002ZM231.557 39H214.457V36.084L215.645 35.976C216.341 35.904 216.689 35.568 216.689 34.968V18.228L214.637 18.12V15.06H231.125V21.036L227.453 21.288V19.848C227.453 19.44 227.393 19.152 227.273 18.984C227.153 18.816 226.865 18.732 226.409 18.732H221.081V24.888H229.397V28.56H221.081V35.292H226.877C227.309 35.292 227.585 35.208 227.705 35.04C227.825 34.848 227.885 34.548 227.885 34.14V32.34L231.557 32.592V39Z" fill="black"/>
</svg>
